PathFileType	4	(X/Y/Z)	./resultDataOpenSim/trcMotMarkerGrf/sub09/qtm-02-08.trc
DataRate	CameraRate	NumFrames	NumMarkers	Units	OrigDataRate	OrigDataStartFrame	OrigNumFrames
250.000000	250.000000	11	24	m	250.000000	1	489
Frame#	Time	L.Toe.Tip			R.Toe.Tip			L.Ankle.Lat			R.Ankle.Lat			L.Ankle.Med			R.Ankle.Med			L.Heel			R.Heel			L.Knee.Lat			R.Knee.Lat			L.Knee.Med			R.Knee.Med			L.Thigh.Upper			R.Thigh.Upper			L.ASIS			R.ASIS			V.Sacral			L.Acromium			R.Acromium			C7			L.Elbow			R.Elbow			L.Wrist.Lat			R.Wrist.Lat
		X1	Y1	Z1	X2	Y2	Z2	X3	Y3	Z3	X4	Y4	Z4	X5	Y5	Z5	X6	Y6	Z6	X7	Y7	Z7	X8	Y8	Z8	X9	Y9	Z9	X10	Y10	Z10	X11	Y11	Z11	X12	Y12	Z12	X13	Y13	Z13	X14	Y14	Z14	X15	Y15	Z15	X16	Y16	Z16	X17	Y17	Z17	X18	Y18	Z18	X19	Y19	Z19	X20	Y20	Z20	X21	Y21	Z21	X22	Y22	Z22	X23	Y23	Z23	X24	Y24	Z24

1	0	-1.5208865	0.036831505	-0.023372873	-0.92829721	0.087537697	0.10260064	-1.671028	0.080976192	-0.051029729	-1.0791019	0.066670716	0.12480806	-1.6389696	0.09777367	0.040906615	-1.068616	0.10741202	0.035160158	NaN	NaN	NaN	-1.1287748	0.029354491	0.065663711	-1.5097651	0.46738363	-0.11621103	-1.1579671	0.51860253	0.17133471	-1.5028999	0.46725749	0.01020073	-1.1550484	0.4997179	0.043742928	-1.3982309	0.87252125	-0.1626693	-1.360653	0.87123373	0.20519471	-1.289277	0.94447926	-0.11462961	-1.2788229	0.95270216	0.12702456	-1.4459966	1.0122315	0.017304007	-1.2476977	1.3965161	-0.15049313	-1.2826139	1.4079213	0.17750875	-1.3271306	1.4590685	0.0085569333	-1.3669554	1.0349651	-0.22438251	-1.4691582	1.0950086	0.24298303	-1.1090915	0.93645542	-0.20595048	-1.4032921	0.83774087	0.29271486
2	0.004	-1.5208288	0.03679224	-0.023410597	-0.91216837	0.091136183	0.10379649	-1.6706633	0.081681372	-0.051106345	-1.063195	0.067193525	0.12497056	-1.638616	0.098481429	0.040784168	-1.0530481	0.10834443	0.035477394	NaN	NaN	NaN	-1.1115122	0.028771652	0.065586447	-1.506944	0.46740024	-0.11635779	-1.1523633	0.5172165	0.17148243	-1.4997984	0.46716053	0.01011895	-1.1484744	0.49857573	0.043804643	-1.3925531	0.87142146	-0.16231546	-1.3546821	0.86972044	0.2055506	-1.2832757	0.94316023	-0.11440714	-1.2728275	0.95130658	0.1273253	-1.4399078	1.0108186	0.017508674	-1.241651	1.3949799	-0.15012088	-1.2768997	1.4065353	0.17782819	-1.3212554	1.4577381	0.0085763776	-1.3603492	1.0331548	-0.22427027	-1.4635071	1.0936401	0.24258558	-1.1014557	0.93723508	-0.20548149	-1.3985339	0.83637934	0.29350531
3	0.008	-1.5207723	0.036754176	-0.023463216	-0.89642148	0.094921099	0.10487792	-1.6702663	0.082482799	-0.051215929	-1.0474586	0.067772124	0.12512055	-1.6381981	0.099174551	0.040651013	-1.0377103	0.10932824	0.035776419	NaN	NaN	NaN	-1.0943726	0.028168735	0.065655763	-1.5039925	0.46739684	-0.11643438	-1.1467654	0.51578624	0.1716092	-1.4967707	0.46705857	0.010058117	-1.1418683	0.49743329	0.043853455	-1.3868553	0.87030937	-0.16195188	-1.3486591	0.86817744	0.20589399	-1.2772653	0.9418043	-0.11420221	-1.2667171	0.94989018	0.12763034	-1.4337952	1.0093616	0.017744803	-1.2355463	1.3934528	-0.14974983	-1.271167	1.4051422	0.17814852	-1.3153336	1.4563864	0.0086764248	-1.3537072	1.0312903	-0.224091	-1.4578787	1.0923643	0.2422404	-1.0938469	0.93797363	-0.2050043	-1.3937069	0.83501189	0.29427866
4	0.012	-1.5207164	0.036717963	-0.02353827	-0.88124158	0.098951337	0.10582003	-1.6698247	0.083395689	-0.051375454	-1.0319428	0.068464312	0.12527609	-1.6376868	0.099866601	0.040494028	-1.0227187	0.11038199	0.036046727	NaN	NaN	NaN	-1.0774485	0.027570157	0.065953276	-1.5008529	0.46736065	-0.11645045	-1.1412148	0.51430045	0.17168703	-1.4937754	0.46694693	0.010024846	-1.1351908	0.49629368	0.043902335	-1.381116	0.86918913	-0.16157609	-1.3425083	0.86659802	0.20623053	-1.2712244	0.9404099	-0.11401286	-1.2604611	0.94844524	0.12793826	-1.4276307	1.0078581	0.018027339	-1.2293515	1.3919394	-0.14937841	-1.2653857	1.4037388	0.17846618	-1.309259	1.4550373	0.0090936673	-1.3469994	1.029367	-0.22378859	-1.4520519	1.0911535	0.24195946	-1.0862653	0.93864224	-0.20452204	-1.388758	0.83363848	0.29501629
5	0.016	-1.5206573	0.036685151	-0.023630703	-0.86664012	0.10314096	0.10666156	-1.6693484	0.084374648	-0.051582908	-1.0166429	0.069318705	0.12545492	-1.6370901	0.10059143	0.040292693	-1.0081172	0.11149592	0.036277861	NaN	NaN	NaN	-1.0608825	0.027068567	0.066412879	-1.497552	0.46728678	-0.11646617	-1.1356156	0.51281141	0.17173395	-1.49072	0.46681481	0.010008065	-1.1284481	0.49515897	0.043969506	-1.3753302	0.86807272	-0.16119155	-1.3361956	0.86499098	0.20656725	-1.2651427	0.93899902	-0.11382617	-1.2540981	0.94698153	0.12823793	-1.4214124	1.0063443	0.018356405	-1.2230803	1.3904413	-0.1490072	-1.2595368	1.4023278	0.17877949	-1.302937	1.4537335	0.010070496	-1.3402445	1.0274327	-0.22338652	-1.4457295	1.0899078	0.24172903	-1.0787113	0.93923045	-0.20405317	-1.3836865	0.83225339	0.295705
6	0.02	-1.5205902	0.036658431	-0.023727277	-0.85254178	0.10734467	0.10744844	-1.6688479	0.085393983	-0.051827205	-1.001483	0.070402796	0.12565989	-1.6364257	0.10137278	0.040025588	-0.99391684	0.11265326	0.036457159	NaN	NaN	NaN	-1.0448405	0.026782037	0.066861284	-1.4941184	0.46717375	-0.11652449	-1.1295333	0.51143373	0.17185646	-1.4875244	0.46665102	0.0099838752	-1.1217177	0.49402144	0.044049441	-1.3694984	0.86696672	-0.16079985	-1.329724	0.86336516	0.20689943	-1.2590194	0.93758569	-0.11363816	-1.2476686	0.94550568	0.12851588	-1.4151508	1.0048582	0.018715159	-1.2167606	1.3889549	-0.14864078	-1.253614	1.4009156	0.17909026	-1.296419	1.4524699	0.011463103	-1.3334857	1.025546	-0.22298472	-1.438977	1.0885739	0.24151458	-1.0711877	0.93974546	-0.20361393	-1.3785479	0.83084105	0.29634175
7	0.024	-1.5205132	0.03663925	-0.023817508	-0.8388848	0.11142854	0.10819475	-1.6683165	0.086461388	-0.052100743	-0.98637118	0.071771234	0.12589374	-1.6356974	0.1022086	0.039688959	-0.98012103	0.11383668	0.036580562	NaN	NaN	NaN	-1.0294208	0.026754804	0.067189545	-1.4905451	0.46702619	-0.11663472	-1.1226698	0.5102346	0.17212436	-1.4841383	0.46646289	0.009931612	-1.1150836	0.49286897	0.044124853	-1.3636223	0.86587218	-0.16039723	-1.3231017	0.86172983	0.20721895	-1.2528611	0.93617878	-0.11345721	-1.2411955	0.94402064	0.12877037	-1.4088486	1.0034186	0.019076955	-1.2104117	1.3874756	-0.14828331	-1.2476268	1.39951	0.17940132	-1.2899016	1.4511966	0.012749305	-1.3267479	1.0237389	-0.22265724	-1.4322359	1.0871729	0.24126805	-1.0637002	0.94019679	-0.20320196	-1.3734066	0.82940326	0.29692655
8	0.028	-1.5204252	0.036626923	-0.023899647	-0.82566015	0.11530091	0.1088504	-1.6677317	0.087584864	-0.052408859	-0.97143082	0.073327043	0.12613302	-1.634899	0.10308758	0.039301333	-0.96673245	0.1150273	0.036652347	NaN	NaN	NaN	-1.014601	0.026917197	0.067414442	-1.486833	0.46685914	-0.11677458	-1.1153782	0.50914195	0.17245207	-1.4805739	0.46627143	0.0098550001	-1.1085347	0.49169957	0.044192916	-1.3577021	0.8647873	-0.15997556	-1.3163497	0.86009283	0.20752375	-1.2466702	0.93478919	-0.11329294	-1.23467	0.94253999	0.12901189	-1.4025059	1.0020173	0.019438023	-1.2040294	1.3860053	-0.1479314	-1.2415906	1.3981167	0.17971544	-1.2835268	1.4498842	0.013567556	-1.3200292	1.0220107	-0.22240224	-1.4258178	1.0857519	0.24097712	-1.0562574	0.94058559	-0.20280855	-1.3682358	0.82797051	0.2974609
9	0.032	-1.5203235	0.036619962	-0.023978966	-0.81289665	0.11890997	0.10932025	-1.6670747	0.088766819	-0.052766264	-0.957043	0.07481222	0.12630584	-1.6340277	0.10401314	0.038883121	-0.95377657	0.11620009	0.036673837	NaN	NaN	NaN	-1.0003104	0.02715821	0.067576689	-1.4830322	0.46669144	-0.11688271	-1.1081732	0.50805347	0.17273395	-1.4768967	0.46608283	0.0097817847	-1.1019921	0.49052948	0.044264384	-1.3517355	0.86371159	-0.15952779	-1.3094991	0.85846098	0.20781994	-1.2404351	0.93342364	-0.11314411	-1.2280719	0.94108024	0.12924933	-1.3961355	1.0006245	0.019828786	-1.1975921	1.3845543	-0.14757428	-1.2355082	1.3967414	0.1800348	-1.2772762	1.4485514	0.013989507	-1.3133168	1.0203444	-0.22217281	-1.4196742	1.0843479	0.24067387	-1.0488682	0.94091245	-0.20243415	-1.3629078	0.82657529	0.29794911
10	0.036	-1.5202066	0.036616472	-0.024061314	-0.80062756	0.12222584	0.10953653	-1.6663452	0.090009786	-0.053176867	-0.9435009	0.076025505	0.12634384	-1.6330905	0.10500042	0.038441693	-0.94130891	0.11732373	0.036645928	NaN	NaN	NaN	-0.98654465	0.0274104	0.067675471	-1.4792126	0.46652837	-0.11688077	-1.1011334	0.50695373	0.17298596	-1.47313	0.4658827	0.0097342578	-1.0954024	0.48938138	0.04435217	-1.3457159	0.86264794	-0.15905361	-1.3025666	0.85684309	0.20812063	-1.2341422	0.93208763	-0.1129987	-1.22141	0.93964613	0.12948349	-1.3897525	0.99921782	0.020280238	-1.191096	1.3831353	-0.14720497	-1.2293744	1.3953928	0.18036456	-1.27106	1.4472279	0.014262522	-1.3065977	1.0187256	-0.22191187	-1.4136258	1.0829717	0.24038186	-1.0415306	0.94117806	-0.20207683	-1.3573203	0.82522896	0.29839433
11	0.04	-1.5200768	0.036614665	-0.024147746	-0.78887312	0.12522364	0.10949779	-1.6655577	0.09131677	-0.053623693	-0.93079344	0.076946002	0.12623294	-1.6321034	0.10605251	0.037983453	-0.92937939	0.11836768	0.036577061	NaN	NaN	NaN	-0.9733811	0.027649931	0.067694539	-1.4753468	0.46635038	-0.11676269	-1.0941063	0.50587099	0.17327064	-1.469214	0.46565718	0.0097075678	-1.0887527	0.48827138	0.044467921	-1.3396342	0.86159838	-0.15856024	-1.2955656	0.85524914	0.20844319	-1.2277933	0.93078505	-0.11284896	-1.2147219	0.93823444	0.12971211	-1.3833599	0.99779693	0.020793686	-1.1845699	1.3817546	-0.14682509	-1.2232023	1.3940772	0.18070984	-1.2648145	1.4459224	0.014547574	-1.2998639	1.0171485	-0.22157979	-1.4075647	1.0816156	0.24009667	-1.034232	0.94137242	-0.20172137	-1.3514747	0.82392848	0.29879922
